<?xml version="1.0" encoding="UTF-8" standalone="no"?> <svg id="Layer_1" data-name="Layer 1" xmlns="http://www.w3.org/2000/svg" viewBox="0 0 128 128"><defs><style>.cls-1{fill:#1d75b8;}.cls-2{fill:#2d3e50;}</style></defs><title>a</title><path class="cls-1" d="M88.0182,53.06454a4.36055,4.36055,0,0,1-2.42633.47935,10.67691,10.67691,0,0,1-2.97838-.40672,15.27035,15.27035,0,0,1-2.42618-.90068L78.93788,55.578a19.81122,19.81122,0,0,0,1.9613.799,13.5903,13.5903,0,0,0,3.44327.65387v3.45765h3.6611V56.94357a7.67128,7.67128,0,0,0,2.39726-.75505,5.33461,5.33461,0,0,0,1.5837-1.249,4.47537,4.47537,0,0,0,.87158-1.58266,5.88793,5.88793,0,0,0,.26164-1.72794,5.21166,5.21166,0,0,0-.45047-2.23638,5.15347,5.15347,0,0,0-1.24938-1.66994,8.85414,8.85414,0,0,0-1.88864-1.26446,21.48652,21.48652,0,0,0-2.36816-1.01924q-.84309-.29152-1.43844-.5389a6.39817,6.39817,0,0,1-1.00243-.509,1.73927,1.73927,0,0,1-.59566-.59568,1.59348,1.59348,0,0,1-.18879-.799,1.4624,1.4624,0,0,1,.61014-1.22053,3.36035,3.36035,0,0,1,2.00478-.46476,11.85409,11.85409,0,0,1,2.65872.29041,13.45077,13.45077,0,0,1,2.223.69743l.90088-3.48675a11.51147,11.51147,0,0,0-1.729-.58117,16.33331,16.33331,0,0,0-2.60068-.43589V34.77317h-3.6611v3.13815a7.31768,7.31768,0,0,0-2.20827.741,4.93243,4.93243,0,0,0-1.511,1.23484,4.88022,4.88022,0,0,0-.85715,1.61257,6.16273,6.16273,0,0,0-.27607,1.84531,4.4482,4.4482,0,0,0,1.64184,3.632,7.54956,7.54956,0,0,0,1.65613,1.0315q.91547.42156,1.87416.77006.98763.34881,1.74341.6537a7.51875,7.51875,0,0,1,1.2496.62478,2.5638,2.5638,0,0,1,.75542.71189,1.66459,1.66459,0,0,1,.26144.94443A1.57788,1.57788,0,0,1,88.0182,53.06454Z"/><path class="cls-1" d="M70.29479,71.03189a29.19078,29.19078,0,0,0,14.85136,4.49832q.43944.0122.88182.01219.44277,0,.88073-.01219a29.19124,29.19124,0,0,0,14.8521-4.49832,27.67208,27.67208,0,0,0,12.91567-22.52634,28.75229,28.75229,0,0,0-11.33623-24.09634l-5.32032-4.03366,3.371-14.24109a2.46224,2.46224,0,0,0-2.39583-3.02908H73.0605a2.4622,2.4622,0,0,0-2.3958,3.02908l3.37094,14.24129-5.32029,4.03346a28.75146,28.75146,0,0,0-11.33586,24.096A27.67141,27.67141,0,0,0,70.29479,71.03189ZM71.69,28.33306l4.38772-3.32641a2.445,2.445,0,0,0,1.06012.24831H82.167a2.462,2.462,0,1,0,0-4.92405H79.085L76.17318,8.02943H95.88239L92.97056,20.33091H90.75635a2.462,2.462,0,0,0,0,4.92405h4.16134a2.44508,2.44508,0,0,0,1.06027-.24839l4.38758,3.32649a23.82683,23.82683,0,0,1,9.39093,19.96924A22.80919,22.80919,0,0,1,99.11972,66.87609,23.93516,23.93516,0,0,1,86.7711,70.608c-.49344.014-.9917.014-1.48736,0a23.93459,23.93459,0,0,1-12.34788-3.7319A22.81034,22.81034,0,0,1,62.29911,48.30193,23.82617,23.82617,0,0,1,71.69,28.33306Z"/><path class="cls-2" d="M124.01872,84.91724a5.989,5.989,0,0,0-6.98119-1.7689L79.8523,98.75728l-3.31408.95786a16.23,16.23,0,0,1-3.61468.61528c-2.65685.1433-6.52673.22023-7.198.26569H43.88709a1.566,1.566,0,0,1-.97882-.34611,1.88714,1.88714,0,0,1-.91244-1.5941,1.96686,1.96686,0,0,1,2.02411-1.90523H68.767a6.215,6.215,0,0,0,6.17365-5.48149,5.72363,5.72363,0,0,0,.04546-.73762,6.21947,6.21947,0,0,0-5.01655-6.10372c-13.81556-2.71627-27.49128-5.98141-41.6774-5.06548-.55235.035-5.53041.23771-8.16629.47893v36.73777l.13636,3.06586c4.926.60033,38.18756,4.66951,38.73177,4.76614,5.27609.93677,10.55.68606,15.57791-2.31074a.79355.79355,0,0,1,.07342-.042s33.366-18.82992,47.98558-28.37705A5.98418,5.98418,0,0,0,124.01872,84.91724Z"/><rect class="cls-1" x="2.65697" y="75.55602" width="13.40919" height="44.11641"/></svg>