<?xml version="1.0" encoding="UTF-8" standalone="no"?> <svg xmlns="http://www.w3.org/2000/svg" xmlns:xlink="http://www.w3.org/1999/xlink" viewBox="0 0 64 64"><defs><style>.cls-1{fill:url(#linear-gradient);}.cls-2{fill:url(#linear-gradient-2);}.cls-3{fill:url(#linear-gradient-3);}.cls-4{fill:url(#linear-gradient-4);}.cls-5{fill:url(#linear-gradient-5);}.cls-6{fill:url(#linear-gradient-6);}.cls-7{fill:url(#linear-gradient-7);}.cls-8{fill:url(#linear-gradient-8);}.cls-9{fill:url(#linear-gradient-9);}</style><linearGradient id="linear-gradient" x1="2.5" y1="11.08" x2="19.29" y2="11.08" gradientUnits="userSpaceOnUse"><stop offset="0" stop-color="#17a6d7"/><stop offset="1" stop-color="#9d31fe"/></linearGradient><linearGradient id="linear-gradient-2" x1="23.54" y1="11.08" x2="40.34" y2="11.08" xlink:href="#linear-gradient"/><linearGradient id="linear-gradient-3" x1="44.59" y1="11.08" x2="61.38" y2="11.08" xlink:href="#linear-gradient"/><linearGradient id="linear-gradient-4" y1="32" x2="19.29" y2="32" xlink:href="#linear-gradient"/><linearGradient id="linear-gradient-5" x1="23.54" y1="32" x2="40.34" y2="32" xlink:href="#linear-gradient"/><linearGradient id="linear-gradient-6" x1="44.59" y1="32" x2="61.38" y2="32" xlink:href="#linear-gradient"/><linearGradient id="linear-gradient-7" y1="52.92" x2="19.29" y2="52.92" xlink:href="#linear-gradient"/><linearGradient id="linear-gradient-8" x1="23.54" y1="52.92" x2="40.34" y2="52.92" xlink:href="#linear-gradient"/><linearGradient id="linear-gradient-9" x1="44.59" y1="52.92" x2="61.38" y2="52.92" xlink:href="#linear-gradient"/></defs><g id="Layer_49" data-name="Layer 49"><path class="cls-1" d="M17.79,2.5H4A1.5,1.5,0,0,0,2.5,4V18.15A1.5,1.5,0,0,0,4,19.65H17.79a1.5,1.5,0,0,0,1.5-1.5V4A1.5,1.5,0,0,0,17.79,2.5Zm-1.5,14.15H5.5V5.5H16.29Z"/><path class="cls-2" d="M38.84,2.5H25A1.5,1.5,0,0,0,23.54,4V18.15a1.5,1.5,0,0,0,1.5,1.5h13.8a1.5,1.5,0,0,0,1.5-1.5V4A1.5,1.5,0,0,0,38.84,2.5Zm-1.5,14.15H26.54V5.5h10.8Z"/><path class="cls-3" d="M59.88,2.5H46.09A1.5,1.5,0,0,0,44.59,4V18.15a1.5,1.5,0,0,0,1.5,1.5H59.88a1.5,1.5,0,0,0,1.5-1.5V4A1.5,1.5,0,0,0,59.88,2.5Zm-1.5,14.15H47.59V5.5H58.38Z"/><path class="cls-4" d="M17.79,23.42H4a1.5,1.5,0,0,0-1.5,1.5V39.08A1.5,1.5,0,0,0,4,40.58H17.79a1.5,1.5,0,0,0,1.5-1.5V24.92A1.5,1.5,0,0,0,17.79,23.42Zm-1.5,14.16H5.5V26.42H16.29Z"/><path class="cls-5" d="M38.84,23.42H25a1.5,1.5,0,0,0-1.5,1.5V39.08a1.5,1.5,0,0,0,1.5,1.5h13.8a1.5,1.5,0,0,0,1.5-1.5V24.92A1.5,1.5,0,0,0,38.84,23.42Zm-1.5,14.16H26.54V26.42h10.8Z"/><path class="cls-6" d="M59.88,23.42H46.09a1.5,1.5,0,0,0-1.5,1.5V39.08a1.5,1.5,0,0,0,1.5,1.5H59.88a1.5,1.5,0,0,0,1.5-1.5V24.92A1.5,1.5,0,0,0,59.88,23.42Zm-1.5,14.16H47.59V26.42H58.38Z"/><path class="cls-7" d="M17.79,44.35H4a1.5,1.5,0,0,0-1.5,1.5V60A1.5,1.5,0,0,0,4,61.5H17.79a1.5,1.5,0,0,0,1.5-1.5V45.85A1.5,1.5,0,0,0,17.79,44.35ZM16.29,58.5H5.5V47.35H16.29Z"/><path class="cls-8" d="M38.84,44.35H25a1.5,1.5,0,0,0-1.5,1.5V60A1.5,1.5,0,0,0,25,61.5h13.8a1.5,1.5,0,0,0,1.5-1.5V45.85A1.5,1.5,0,0,0,38.84,44.35ZM37.34,58.5H26.54V47.35h10.8Z"/><path class="cls-9" d="M59.88,44.35H46.09a1.5,1.5,0,0,0-1.5,1.5V60a1.5,1.5,0,0,0,1.5,1.5H59.88a1.5,1.5,0,0,0,1.5-1.5V45.85A1.5,1.5,0,0,0,59.88,44.35ZM58.38,58.5H47.59V47.35H58.38Z"/></g></svg>