<?xml version="1.0" encoding="UTF-8"?>
<!DOCTYPE svg PUBLIC "-//W3C//DTD SVG 1.1//EN" "http://www.w3.org/Graphics/SVG/1.1/DTD/svg11.dtd">
<!-- Creator: CorelDRAW -->
<svg xmlns="http://www.w3.org/2000/svg" xml:space="preserve" width="2.66666in" height="2.66666in" version="1.1" style="shape-rendering:geometricPrecision; text-rendering:geometricPrecision; image-rendering:optimizeQuality; fill-rule:evenodd; clip-rule:evenodd"
viewBox="0 0 2667 2667"
 xmlns:xlink="http://www.w3.org/1999/xlink">
 <defs>
  <style type="text/css">
   <![CDATA[
    .fil0 {fill:#1D81CE}
    .fil1 {fill:white}
   ]]>
  </style>
 </defs>
 <g id="Layer_x0020_1">
  <metadata id="CorelCorpID_0Corel-Layer"/>
  <path class="fil0" d="M1333 0c964,0 1334,370 1334,1333 0,964 -370,1334 -1334,1334 -963,0 -1333,-370 -1333,-1334 0,-963 370,-1333 1333,-1333z"/>
  <path class="fil1" d="M1347 1346c-43,0 -164,-70 -165,-120 -1,-42 53,-53 55,-69 2,-12 -38,-40 -24,-81 16,-46 97,-63 139,-63 68,0 50,48 144,67 23,4 101,130 -63,172 -44,11 -19,94 -86,94zm-14 818c-539,0 -946,-486 -835,-1001 39,-182 142,-348 289,-468 188,-152 423,-213 650,-185 416,51 741,390 748,813 3,160 -42,321 -134,460 -138,207 -372,351 -620,375l-98 6zm0 -1616c-1,0 -2,0 -3,0 120,38 101,70 57,175 -85,199 -361,132 -304,-2 17,-41 -22,-90 -48,-117 -73,28 -141,67 -202,113 87,102 314,195 190,353 -78,100 -197,78 -211,100 -2,4 -5,15 3,47 10,36 152,57 192,77 40,19 48,45 53,63 4,13 4,13 23,13l45 -4c105,0 247,148 141,243 -17,15 -56,106 -54,142 4,93 -1,175 -61,175 0,0 0,0 0,0 -66,0 -152,-121 -246,-117 -123,6 -60,-274 -159,-324 -42,-21 -48,-43 -50,-68 -8,-69 -106,-67 -168,-171 -56,491 365,908 866,870 -23,-45 -75,-88 -107,-107 -10,-5 -15,-15 -15,-25 0,-23 24,-43 98,-86 24,-14 36,-35 72,-35 68,0 102,112 182,137 36,10 63,19 81,29 107,-55 199,-132 271,-225 -104,7 -162,-76 -249,-119 -164,-80 -278,-394 -87,-511 55,-33 176,-100 198,-136 -4,-1 -10,-2 -21,-3 -197,-18 -209,-104 -262,-116 -61,-13 -109,-99 -65,-153 66,-82 80,-79 97,-177 -81,-26 -167,-41 -257,-41zm-99 6c-52,6 -104,18 -153,33 34,40 67,96 44,152 -30,72 158,111 220,-34 11,-26 34,-79 30,-87 -9,-19 -91,-26 -141,-64zm-436 192c-126,109 -217,255 -254,421 20,61 54,103 104,132 82,47 92,80 96,113 1,14 2,20 26,33 119,60 77,320 135,319 115,-2 211,117 249,117 9,0 19,-32 15,-128 -2,-48 43,-154 70,-178 75,-68 -61,-170 -117,-163 -54,8 -91,6 -106,-42 -4,-14 -7,-25 -29,-35 -64,-32 -196,-33 -216,-106 -23,-84 8,-107 80,-118 42,-6 93,-14 136,-69 93,-118 -93,-182 -189,-296zm647 1365c71,-10 142,-29 207,-56 -83,-28 -94,-30 -155,-103 -60,-72 -55,-41 -101,-15 -38,22 -57,35 -67,43 38,26 93,75 116,131zm572 -359c267,-412 86,-965 -384,-1148 -18,103 -37,107 -105,191 -24,30 13,74 40,80 78,18 66,97 256,114 14,2 56,6 64,37 12,53 -112,121 -221,187 -158,96 -49,366 83,431 105,52 152,141 267,108zm-790 -526c0,0 4,12 47,40 83,54 78,35 86,12 7,-24 19,-59 61,-70 50,-13 86,-38 57,-85 -128,-29 -59,-85 -183,-55 -34,8 -50,21 -30,46 55,69 -30,94 -38,112 0,0 0,0 0,0z"/>
 </g>
</svg>
