<svg xmlns="http://www.w3.org/2000/svg" viewBox="0 0 64 64"><defs><style>.cls-1{fill:#009ede;}.cls-2{fill:#0083ca;}.cls-3{fill:#fadf00;}.cls-4{fill:#ffc332;opacity:0.91;}.cls-5{fill:#fff;}</style></defs><g id="_13.sun" data-name="13.sun"><path class="cls-1" d="M42.55,28c-5-11.16-21.61-11.16-26.57,0C.87,26.93-.35,49.15,14.81,49.73H43.72C58.81,49.18,57.73,27,42.55,28Z"/><path class="cls-2" d="M52.8,32.86a10.59,10.59,0,0,0-2.25,0c-.2-.42-.41-.83-.64-1.22l-5.34-3.08H42l-1-1-.74-1.48-2.88-1.67A14.59,14.59,0,0,0,24,32.87c-8.9-1.28-15.4,9.54-10.26,16.8a9.82,9.82,0,0,0,1.09.06H43.72C52.17,50,57.64,39.71,52.8,32.86Z"/><path class="cls-3" d="M42.55,28a10.76,10.76,0,0,1,9.36,3.66C57.75,18.31,39.49,8,31,19.69A14.58,14.58,0,0,1,42.55,28Z"/><path class="cls-4" d="M42.55,28a10.78,10.78,0,0,1,9.4,3.7A12.16,12.16,0,0,0,36,21.23,14.59,14.59,0,0,1,42.55,28Z"/><path class="cls-5" d="M31.75,24.9A1,1,0,0,0,33,24.21c.69-2.81-10.33-1.79-9.14.85a1,1,0,0,0,1.34.45A9.1,9.1,0,0,1,31.75,24.9Z"/><path class="cls-5" d="M21.4,25.82c-.91.62-1.14,2.11.23,2.22.56,0,.8-.41,1.19-.81C23.75,26.33,22.31,24.89,21.4,25.82Z"/><path class="cls-5" d="M18.44,32.92c.51-1.38-1.38-1.67-2.33-1.88a7.81,7.81,0,0,0-7.47,2.67c-.86,1,.69,2.29,1.52,1.29a5.91,5.91,0,0,1,5.6-2C16.65,33.1,17.87,34.09,18.44,32.92Z"/><path class="cls-5" d="M8.12,36.38c-1.57-.44-2,3.55-.37,3.46,1.25,0,.93-1.44,1.14-2.27A1,1,0,0,0,8.12,36.38Z"/><path d="M53.19,26.53c.09-11.86-15.69-16.7-22.25-6.85A14.62,14.62,0,0,0,16,28C.85,26.93-.36,49.15,14.8,49.73a1,1,0,0,0,0-2,8.9,8.9,0,0,1-8.89-8.89c0-9.61,13.42-12.29,17.1-3.43a1,1,0,1,0,1.84-.76A11,11,0,0,0,18,28.43c4.33-9,18.19-9,22.52,0a10.94,10.94,0,0,0-6.86,6.22A1,1,0,0,0,34.2,36a1,1,0,0,0,1.31-.54,8.91,8.91,0,0,1,6.61-5.32c12.69-1.76,14.4,17.08,1.6,17.64a1,1,0,0,0,0,2c9.14.2,14.32-11.25,8.26-18A12,12,0,0,0,53.19,26.53ZM42.54,28a14.53,14.53,0,0,0-9.44-7.94c7.29-8.91,21.6-.51,17.36,10.2A10.7,10.7,0,0,0,42.54,28Z"/><path class="cls-5" d="M46,19.22c-1.06-.9-5.21-3.12-5.69-.89a1,1,0,0,0,.94,1.06,6,6,0,0,1,3.42,1.32C45.59,21.69,47.05,20.07,46,19.22Z"/><path class="cls-5" d="M38.06,18a8.67,8.67,0,0,0-1.12.62,1,1,0,0,0,.55,1.83c.82-.22,2.36-.83,1.89-1.94A1,1,0,0,0,38.06,18Z"/><path d="M41,13.37a1,1,0,0,0,1-1V8.42a1,1,0,0,0-2,0v3.95A1,1,0,0,0,41,13.37Z"/><path d="M51.29,17.23a1,1,0,0,0,.7-.29l2.8-2.79a1,1,0,0,0-1.42-1.42l-2.79,2.79A1,1,0,0,0,51.29,17.23Z"/><path d="M59.09,25.53h-4a1,1,0,0,0,0,2h4A1,1,0,0,0,59.09,25.53Z"/><path d="M30,16.94c.9.93,2.35-.51,1.42-1.42l-2.8-2.79c-.9-.93-2.34.51-1.41,1.42Z"/><path d="M29.5,43.58H19a1,1,0,0,0,0,2H29.5a3.5,3.5,0,1,0-2.1-6.3,1,1,0,0,0,1.2,1.6A1.49,1.49,0,1,1,29.5,43.58Z"/><path d="M34.5,49.58H19a1,1,0,0,0,0,2H34.5a1.5,1.5,0,0,1,0,3,1.52,1.52,0,0,1-.9-.3,1,1,0,0,0-1.2,1.6C37.66,59.2,40.71,50.08,34.5,49.58Z"/><path d="M37.5,41.58c-1.07,0-3.15.74-2.3,2.1a1,1,0,0,0,1.4.2,1.49,1.49,0,1,1,.9,2.7H19a1,1,0,0,0,0,2H37.5C42.1,48.49,42.1,41.66,37.5,41.58Z"/></g></svg>